<?xml version="1.0" encoding="UTF-8" standalone="no"?>
<!DOCTYPE svg PUBLIC "-//W3C//DTD SVG 1.1//EN"
 "http://www.w3.org/Graphics/SVG/1.1/DTD/svg11.dtd">
<!-- Generated by graphviz version 13.1.2 (20250808.2320)
 -->
<!-- Title: Simple Pages: 1 -->
<svg width="134pt" height="188pt"
 viewBox="0.00 0.00 134.00 188.00" xmlns="http://www.w3.org/2000/svg" xmlns:xlink="http://www.w3.org/1999/xlink">
<g id="graph0" class="graph" transform="scale(1 1) rotate(0) translate(4 184)">
<title>Simple</title>
<polygon fill="white" stroke="none" points="-4,4 -4,-184 130,-184 130,4 -4,4"/>
<!-- Init -->
<g id="node1" class="node">
<title>Init</title>
<path fill="#4682b4" fill-opacity="0.498039" stroke="black" d="M78,-180C78,-180 48,-180 48,-180 42,-180 36,-174 36,-168 36,-168 36,-156 36,-156 36,-150 42,-144 48,-144 48,-144 78,-144 78,-144 84,-144 90,-150 90,-156 90,-156 90,-168 90,-168 90,-174 84,-180 78,-180"/>
<text xml:space="preserve" text-anchor="middle" x="63" y="-158.45" font-family="Sans-Serif" font-size="14.00">Init</text>
</g>
<!-- Input -->
<g id="node2" class="node">
<title>Input</title>
<path fill="#f0c820" fill-opacity="0.498039" stroke="black" d="M78,-108C78,-108 48,-108 48,-108 42,-108 36,-102 36,-96 36,-96 36,-84 36,-84 36,-78 42,-72 48,-72 48,-72 78,-72 78,-72 84,-72 90,-78 90,-84 90,-84 90,-96 90,-96 90,-102 84,-108 78,-108"/>
<text xml:space="preserve" text-anchor="middle" x="63" y="-86.45" font-family="Sans-Serif" font-size="14.00">Input</text>
</g>
<!-- Init&#45;&gt;Input -->
<g id="edge1" class="edge">
<title>Init&#45;&gt;Input</title>
<g id="a_edge1"><a xlink:title="out_number → in_number&#10;out_str → in_str">
<path fill="none" stroke="black" stroke-width="2" d="M63,-143.7C63,-136.83 63,-128.73 63,-120.97"/>
<polygon fill="black" stroke="black" stroke-width="2" points="66.5,-121.13 63,-111.13 59.5,-121.13 66.5,-121.13"/>
</a>
</g>
</g>
<!-- Table -->
<g id="node3" class="node">
<title>Table</title>
<path fill="#4682b4" fill-opacity="0.498039" stroke="black" d="M42,-36C42,-36 12,-36 12,-36 6,-36 0,-30 0,-24 0,-24 0,-12 0,-12 0,-6 6,0 12,0 12,0 42,0 42,0 48,0 54,-6 54,-12 54,-12 54,-24 54,-24 54,-30 48,-36 42,-36"/>
<text xml:space="preserve" text-anchor="middle" x="27" y="-14.45" font-family="Sans-Serif" font-size="14.00">Table</text>
</g>
<!-- Input&#45;&gt;Table -->
<g id="edge2" class="edge">
<title>Input&#45;&gt;Table</title>
<g id="a_edge2"><a xlink:title="out_number → in_number">
<path fill="none" stroke="black" stroke-width="2" d="M54.1,-71.7C50.35,-64.41 45.89,-55.73 41.68,-47.54"/>
<polygon fill="black" stroke="black" stroke-width="2" points="44.87,-46.09 37.18,-38.8 38.64,-49.29 44.87,-46.09"/>
</a>
</g>
</g>
<!-- Map -->
<g id="node4" class="node">
<title>Map</title>
<path fill="#4682b4" fill-opacity="0.498039" stroke="black" d="M114,-36C114,-36 84,-36 84,-36 78,-36 72,-30 72,-24 72,-24 72,-12 72,-12 72,-6 78,0 84,0 84,0 114,0 114,0 120,0 126,-6 126,-12 126,-12 126,-24 126,-24 126,-30 120,-36 114,-36"/>
<text xml:space="preserve" text-anchor="middle" x="99" y="-14.45" font-family="Sans-Serif" font-size="14.00">Map</text>
</g>
<!-- Input&#45;&gt;Map -->
<g id="edge3" class="edge">
<title>Input&#45;&gt;Map</title>
<g id="a_edge3"><a xlink:title="out_number → in_number">
<path fill="none" stroke="black" stroke-width="2" d="M71.9,-71.7C75.65,-64.41 80.11,-55.73 84.32,-47.54"/>
<polygon fill="black" stroke="black" stroke-width="2" points="87.36,-49.29 88.82,-38.8 81.13,-46.09 87.36,-49.29"/>
</a>
</g>
</g>
</g>
</svg>
