<?xml version="1.0" encoding="UTF-8" standalone="no"?>
<!DOCTYPE svg PUBLIC "-//W3C//DTD SVG 1.1//EN"
 "http://www.w3.org/Graphics/SVG/1.1/DTD/svg11.dtd">
<!-- Generated by graphviz version 13.1.2 (20250808.2320)
 -->
<!-- Title: Fan Pages: 1 -->
<svg width="710pt" height="188pt"
 viewBox="0.00 0.00 710.00 188.00" xmlns="http://www.w3.org/2000/svg" xmlns:xlink="http://www.w3.org/1999/xlink">
<g id="graph0" class="graph" transform="scale(1 1) rotate(0) translate(4 184)">
<title>Fan</title>
<polygon fill="white" stroke="none" points="-4,4 -4,-184 706.25,-184 706.25,4 -4,4"/>
<!-- head -->
<g id="node1" class="node">
<title>head</title>
<path fill="#f0c820" fill-opacity="0.498039" stroke="black" d="M366.12,-180C366.12,-180 336.12,-180 336.12,-180 330.12,-180 324.12,-174 324.12,-168 324.12,-168 324.12,-156 324.12,-156 324.12,-150 330.12,-144 336.12,-144 336.12,-144 366.12,-144 366.12,-144 372.12,-144 378.12,-150 378.12,-156 378.12,-156 378.12,-168 378.12,-168 378.12,-174 372.12,-180 366.12,-180"/>
<text xml:space="preserve" text-anchor="middle" x="351.12" y="-158.45" font-family="Sans-Serif" font-size="14.00">head</text>
</g>
<!-- Block&#45;00 -->
<g id="node2" class="node">
<title>Block&#45;00</title>
<path fill="#4682b4" fill-opacity="0.498039" stroke="black" d="M60.25,-108C60.25,-108 12,-108 12,-108 6,-108 0,-102 0,-96 0,-96 0,-84 0,-84 0,-78 6,-72 12,-72 12,-72 60.25,-72 60.25,-72 66.25,-72 72.25,-78 72.25,-84 72.25,-84 72.25,-96 72.25,-96 72.25,-102 66.25,-108 60.25,-108"/>
<text xml:space="preserve" text-anchor="middle" x="36.12" y="-86.45" font-family="Sans-Serif" font-size="14.00">Block&#45;00</text>
</g>
<!-- head&#45;&gt;Block&#45;00 -->
<g id="edge1" class="edge">
<title>head&#45;&gt;Block&#45;00</title>
<g id="a_edge1"><a xlink:title="out_b → in_b">
<path fill="none" stroke="black" stroke-width="2" d="M323.95,-157.21C276.97,-150.33 177.46,-134.32 84.74,-108.76"/>
<polygon fill="black" stroke="black" stroke-width="2" points="85.79,-105.42 75.21,-106.08 83.89,-112.16 85.79,-105.42"/>
</a>
</g>
</g>
<!-- Block&#45;01 -->
<g id="node4" class="node">
<title>Block&#45;01</title>
<path fill="#4682b4" fill-opacity="0.498039" stroke="black" d="M150.25,-108C150.25,-108 102,-108 102,-108 96,-108 90,-102 90,-96 90,-96 90,-84 90,-84 90,-78 96,-72 102,-72 102,-72 150.25,-72 150.25,-72 156.25,-72 162.25,-78 162.25,-84 162.25,-84 162.25,-96 162.25,-96 162.25,-102 156.25,-108 150.25,-108"/>
<text xml:space="preserve" text-anchor="middle" x="126.12" y="-86.45" font-family="Sans-Serif" font-size="14.00">Block&#45;01</text>
</g>
<!-- head&#45;&gt;Block&#45;01 -->
<g id="edge3" class="edge">
<title>head&#45;&gt;Block&#45;01</title>
<g id="a_edge3"><a xlink:title="out_b → in_b">
<path fill="none" stroke="black" stroke-width="2" d="M323.79,-153.64C290.62,-144.56 232.79,-128.26 174.45,-108.99"/>
<polygon fill="black" stroke="black" stroke-width="2" points="175.86,-105.77 165.26,-105.92 173.64,-112.41 175.86,-105.77"/>
</a>
</g>
</g>
<!-- Block&#45;02 -->
<g id="node5" class="node">
<title>Block&#45;02</title>
<path fill="#4682b4" fill-opacity="0.498039" stroke="black" d="M240.25,-108C240.25,-108 192,-108 192,-108 186,-108 180,-102 180,-96 180,-96 180,-84 180,-84 180,-78 186,-72 192,-72 192,-72 240.25,-72 240.25,-72 246.25,-72 252.25,-78 252.25,-84 252.25,-84 252.25,-96 252.25,-96 252.25,-102 246.25,-108 240.25,-108"/>
<text xml:space="preserve" text-anchor="middle" x="216.12" y="-86.45" font-family="Sans-Serif" font-size="14.00">Block&#45;02</text>
</g>
<!-- head&#45;&gt;Block&#45;02 -->
<g id="edge5" class="edge">
<title>head&#45;&gt;Block&#45;02</title>
<g id="a_edge5"><a xlink:title="out_b → in_b">
<path fill="none" stroke="black" stroke-width="2" d="M323.81,-146.83C305.82,-137.51 281.84,-125.08 261.08,-114.31"/>
<polygon fill="black" stroke="black" stroke-width="2" points="262.8,-111.26 252.31,-109.76 259.57,-117.47 262.8,-111.26"/>
</a>
</g>
</g>
<!-- Block&#45;03 -->
<g id="node6" class="node">
<title>Block&#45;03</title>
<path fill="#4682b4" fill-opacity="0.498039" stroke="black" d="M330.25,-108C330.25,-108 282,-108 282,-108 276,-108 270,-102 270,-96 270,-96 270,-84 270,-84 270,-78 276,-72 282,-72 282,-72 330.25,-72 330.25,-72 336.25,-72 342.25,-78 342.25,-84 342.25,-84 342.25,-96 342.25,-96 342.25,-102 336.25,-108 330.25,-108"/>
<text xml:space="preserve" text-anchor="middle" x="306.12" y="-86.45" font-family="Sans-Serif" font-size="14.00">Block&#45;03</text>
</g>
<!-- head&#45;&gt;Block&#45;03 -->
<g id="edge7" class="edge">
<title>head&#45;&gt;Block&#45;03</title>
<g id="a_edge7"><a xlink:title="out_b → in_b">
<path fill="none" stroke="black" stroke-width="2" d="M340,-143.7C335.21,-136.24 329.47,-127.32 324.1,-118.97"/>
<polygon fill="black" stroke="black" stroke-width="2" points="327.11,-117.17 318.76,-110.65 321.22,-120.96 327.11,-117.17"/>
</a>
</g>
</g>
<!-- Block&#45;04 -->
<g id="node7" class="node">
<title>Block&#45;04</title>
<path fill="#4682b4" fill-opacity="0.498039" stroke="black" d="M420.25,-108C420.25,-108 372,-108 372,-108 366,-108 360,-102 360,-96 360,-96 360,-84 360,-84 360,-78 366,-72 372,-72 372,-72 420.25,-72 420.25,-72 426.25,-72 432.25,-78 432.25,-84 432.25,-84 432.25,-96 432.25,-96 432.25,-102 426.25,-108 420.25,-108"/>
<text xml:space="preserve" text-anchor="middle" x="396.12" y="-86.45" font-family="Sans-Serif" font-size="14.00">Block&#45;04</text>
</g>
<!-- head&#45;&gt;Block&#45;04 -->
<g id="edge9" class="edge">
<title>head&#45;&gt;Block&#45;04</title>
<g id="a_edge9"><a xlink:title="out_b → in_b">
<path fill="none" stroke="black" stroke-width="2" d="M362.25,-143.7C367.04,-136.24 372.78,-127.32 378.15,-118.97"/>
<polygon fill="black" stroke="black" stroke-width="2" points="381.03,-120.96 383.49,-110.65 375.14,-117.17 381.03,-120.96"/>
</a>
</g>
</g>
<!-- Block&#45;05 -->
<g id="node8" class="node">
<title>Block&#45;05</title>
<path fill="#4682b4" fill-opacity="0.498039" stroke="black" d="M510.25,-108C510.25,-108 462,-108 462,-108 456,-108 450,-102 450,-96 450,-96 450,-84 450,-84 450,-78 456,-72 462,-72 462,-72 510.25,-72 510.25,-72 516.25,-72 522.25,-78 522.25,-84 522.25,-84 522.25,-96 522.25,-96 522.25,-102 516.25,-108 510.25,-108"/>
<text xml:space="preserve" text-anchor="middle" x="486.12" y="-86.45" font-family="Sans-Serif" font-size="14.00">Block&#45;05</text>
</g>
<!-- head&#45;&gt;Block&#45;05 -->
<g id="edge11" class="edge">
<title>head&#45;&gt;Block&#45;05</title>
<g id="a_edge11"><a xlink:title="out_b → in_b">
<path fill="none" stroke="black" stroke-width="2" d="M378.44,-146.83C396.43,-137.51 420.41,-125.08 441.17,-114.31"/>
<polygon fill="black" stroke="black" stroke-width="2" points="442.68,-117.47 449.94,-109.76 439.45,-111.26 442.68,-117.47"/>
</a>
</g>
</g>
<!-- Block&#45;06 -->
<g id="node9" class="node">
<title>Block&#45;06</title>
<path fill="#4682b4" fill-opacity="0.498039" stroke="black" d="M600.25,-108C600.25,-108 552,-108 552,-108 546,-108 540,-102 540,-96 540,-96 540,-84 540,-84 540,-78 546,-72 552,-72 552,-72 600.25,-72 600.25,-72 606.25,-72 612.25,-78 612.25,-84 612.25,-84 612.25,-96 612.25,-96 612.25,-102 606.25,-108 600.25,-108"/>
<text xml:space="preserve" text-anchor="middle" x="576.12" y="-86.45" font-family="Sans-Serif" font-size="14.00">Block&#45;06</text>
</g>
<!-- head&#45;&gt;Block&#45;06 -->
<g id="edge13" class="edge">
<title>head&#45;&gt;Block&#45;06</title>
<g id="a_edge13"><a xlink:title="out_b → in_b">
<path fill="none" stroke="black" stroke-width="2" d="M378.46,-153.64C411.63,-144.56 469.46,-128.26 527.8,-108.99"/>
<polygon fill="black" stroke="black" stroke-width="2" points="528.61,-112.41 536.99,-105.92 526.39,-105.77 528.61,-112.41"/>
</a>
</g>
</g>
<!-- Block&#45;07 -->
<g id="node10" class="node">
<title>Block&#45;07</title>
<path fill="#4682b4" fill-opacity="0.498039" stroke="black" d="M690.25,-108C690.25,-108 642,-108 642,-108 636,-108 630,-102 630,-96 630,-96 630,-84 630,-84 630,-78 636,-72 642,-72 642,-72 690.25,-72 690.25,-72 696.25,-72 702.25,-78 702.25,-84 702.25,-84 702.25,-96 702.25,-96 702.25,-102 696.25,-108 690.25,-108"/>
<text xml:space="preserve" text-anchor="middle" x="666.12" y="-86.45" font-family="Sans-Serif" font-size="14.00">Block&#45;07</text>
</g>
<!-- head&#45;&gt;Block&#45;07 -->
<g id="edge15" class="edge">
<title>head&#45;&gt;Block&#45;07</title>
<g id="a_edge15"><a xlink:title="out_b → in_b">
<path fill="none" stroke="black" stroke-width="2" d="M378.3,-157.21C425.28,-150.33 524.79,-134.32 617.51,-108.76"/>
<polygon fill="black" stroke="black" stroke-width="2" points="618.36,-112.16 627.04,-106.08 616.46,-105.42 618.36,-112.16"/>
</a>
</g>
</g>
<!-- tail -->
<g id="node3" class="node">
<title>tail</title>
<path fill="#4682b4" fill-opacity="0.498039" stroke="black" d="M366.12,-36C366.12,-36 336.12,-36 336.12,-36 330.12,-36 324.12,-30 324.12,-24 324.12,-24 324.12,-12 324.12,-12 324.12,-6 330.12,0 336.12,0 336.12,0 366.12,0 366.12,0 372.12,0 378.12,-6 378.12,-12 378.12,-12 378.12,-24 378.12,-24 378.12,-30 372.12,-36 366.12,-36"/>
<text xml:space="preserve" text-anchor="middle" x="351.12" y="-14.45" font-family="Sans-Serif" font-size="14.00">tail</text>
</g>
<!-- Block&#45;00&#45;&gt;tail -->
<g id="edge2" class="edge">
<title>Block&#45;00&#45;&gt;tail</title>
<g id="a_edge2"><a xlink:title="out_b → in_b">
<path fill="none" stroke="black" stroke-width="2" d="M72.3,-74.74C75.27,-73.75 78.23,-72.82 81.12,-72 161.42,-49.13 257.94,-32.78 311.09,-24.71"/>
<polygon fill="black" stroke="black" stroke-width="2" points="311.58,-28.18 320.95,-23.24 310.54,-21.25 311.58,-28.18"/>
</a>
</g>
</g>
<!-- Block&#45;01&#45;&gt;tail -->
<g id="edge4" class="edge">
<title>Block&#45;01&#45;&gt;tail</title>
<g id="a_edge4"><a xlink:title="out_b → in_b">
<path fill="none" stroke="black" stroke-width="2" d="M162.39,-75.03C165.34,-73.98 168.27,-72.96 171.12,-72 219.06,-55.91 275.03,-39.85 311.68,-29.7"/>
<polygon fill="black" stroke="black" stroke-width="2" points="312.16,-33.2 320.87,-27.17 310.3,-26.45 312.16,-33.2"/>
</a>
</g>
</g>
<!-- Block&#45;02&#45;&gt;tail -->
<g id="edge6" class="edge">
<title>Block&#45;02&#45;&gt;tail</title>
<g id="a_edge6"><a xlink:title="out_b → in_b">
<path fill="none" stroke="black" stroke-width="2" d="M249.84,-71.52C268.82,-61.68 292.59,-49.35 312.33,-39.11"/>
<polygon fill="black" stroke="black" stroke-width="2" points="313.77,-42.31 321.04,-34.6 310.55,-36.1 313.77,-42.31"/>
</a>
</g>
</g>
<!-- Block&#45;03&#45;&gt;tail -->
<g id="edge8" class="edge">
<title>Block&#45;03&#45;&gt;tail</title>
<g id="a_edge8"><a xlink:title="out_b → in_b">
<path fill="none" stroke="black" stroke-width="2" d="M317.25,-71.7C322.04,-64.24 327.78,-55.32 333.15,-46.97"/>
<polygon fill="black" stroke="black" stroke-width="2" points="336.03,-48.96 338.49,-38.65 330.14,-45.17 336.03,-48.96"/>
</a>
</g>
</g>
<!-- Block&#45;04&#45;&gt;tail -->
<g id="edge10" class="edge">
<title>Block&#45;04&#45;&gt;tail</title>
<g id="a_edge10"><a xlink:title="out_b → in_b">
<path fill="none" stroke="black" stroke-width="2" d="M385,-71.7C380.21,-64.24 374.47,-55.32 369.1,-46.97"/>
<polygon fill="black" stroke="black" stroke-width="2" points="372.11,-45.17 363.76,-38.65 366.22,-48.96 372.11,-45.17"/>
</a>
</g>
</g>
<!-- Block&#45;05&#45;&gt;tail -->
<g id="edge12" class="edge">
<title>Block&#45;05&#45;&gt;tail</title>
<g id="a_edge12"><a xlink:title="out_b → in_b">
<path fill="none" stroke="black" stroke-width="2" d="M452.41,-71.52C433.43,-61.68 409.66,-49.35 389.92,-39.11"/>
<polygon fill="black" stroke="black" stroke-width="2" points="391.7,-36.1 381.21,-34.6 388.48,-42.31 391.7,-36.1"/>
</a>
</g>
</g>
<!-- Block&#45;06&#45;&gt;tail -->
<g id="edge14" class="edge">
<title>Block&#45;06&#45;&gt;tail</title>
<g id="a_edge14"><a xlink:title="out_b → in_b">
<path fill="none" stroke="black" stroke-width="2" d="M539.86,-75.03C536.91,-73.98 533.98,-72.96 531.12,-72 483.19,-55.91 427.22,-39.85 390.57,-29.7"/>
<polygon fill="black" stroke="black" stroke-width="2" points="391.95,-26.45 381.38,-27.17 390.09,-33.2 391.95,-26.45"/>
</a>
</g>
</g>
<!-- Block&#45;07&#45;&gt;tail -->
<g id="edge16" class="edge">
<title>Block&#45;07&#45;&gt;tail</title>
<g id="a_edge16"><a xlink:title="out_b → in_b">
<path fill="none" stroke="black" stroke-width="2" d="M629.95,-74.74C626.98,-73.75 624.02,-72.82 621.12,-72 540.83,-49.13 444.31,-32.78 391.16,-24.71"/>
<polygon fill="black" stroke="black" stroke-width="2" points="391.71,-21.25 381.3,-23.24 390.67,-28.18 391.71,-21.25"/>
</a>
</g>
</g>
</g>
</svg>
