<?xml version="1.0" encoding="UTF-8" standalone="no"?>
<!DOCTYPE svg PUBLIC "-//W3C//DTD SVG 1.1//EN"
 "http://www.w3.org/Graphics/SVG/1.1/DTD/svg11.dtd">
<!-- Generated by graphviz version 13.1.2 (20250808.2320)
 -->
<!-- Title: Fan Pages: 1 -->
<svg width="440pt" height="188pt"
 viewBox="0.00 0.00 440.00 188.00" xmlns="http://www.w3.org/2000/svg" xmlns:xlink="http://www.w3.org/1999/xlink">
<g id="graph0" class="graph" transform="scale(1 1) rotate(0) translate(4 184)">
<title>Fan</title>
<polygon fill="white" stroke="none" points="-4,4 -4,-184 436.25,-184 436.25,4 -4,4"/>
<!-- head -->
<g id="node1" class="node">
<title>head</title>
<path fill="#f0c820" fill-opacity="0.498039" stroke="black" d="M231.12,-180C231.12,-180 201.12,-180 201.12,-180 195.12,-180 189.12,-174 189.12,-168 189.12,-168 189.12,-156 189.12,-156 189.12,-150 195.12,-144 201.12,-144 201.12,-144 231.12,-144 231.12,-144 237.12,-144 243.12,-150 243.12,-156 243.12,-156 243.12,-168 243.12,-168 243.12,-174 237.12,-180 231.12,-180"/>
<text xml:space="preserve" text-anchor="middle" x="216.12" y="-158.45" font-family="Sans-Serif" font-size="14.00">head</text>
</g>
<!-- Block&#45;00 -->
<g id="node2" class="node">
<title>Block&#45;00</title>
<path fill="#4682b4" fill-opacity="0.498039" stroke="black" d="M60.25,-108C60.25,-108 12,-108 12,-108 6,-108 0,-102 0,-96 0,-96 0,-84 0,-84 0,-78 6,-72 12,-72 12,-72 60.25,-72 60.25,-72 66.25,-72 72.25,-78 72.25,-84 72.25,-84 72.25,-96 72.25,-96 72.25,-102 66.25,-108 60.25,-108"/>
<text xml:space="preserve" text-anchor="middle" x="36.12" y="-86.45" font-family="Sans-Serif" font-size="14.00">Block&#45;00</text>
</g>
<!-- head&#45;&gt;Block&#45;00 -->
<g id="edge1" class="edge">
<title>head&#45;&gt;Block&#45;00</title>
<g id="a_edge1"><a xlink:title="out_b → in_b">
<path fill="none" stroke="black" stroke-width="2" d="M188.79,-150.37C161.11,-139.6 117.73,-122.74 84.28,-109.73"/>
<polygon fill="black" stroke="black" stroke-width="2" points="85.86,-106.59 75.27,-106.22 83.32,-113.11 85.86,-106.59"/>
</a>
</g>
</g>
<!-- Block&#45;01 -->
<g id="node4" class="node">
<title>Block&#45;01</title>
<path fill="#4682b4" fill-opacity="0.498039" stroke="black" d="M150.25,-108C150.25,-108 102,-108 102,-108 96,-108 90,-102 90,-96 90,-96 90,-84 90,-84 90,-78 96,-72 102,-72 102,-72 150.25,-72 150.25,-72 156.25,-72 162.25,-78 162.25,-84 162.25,-84 162.25,-96 162.25,-96 162.25,-102 156.25,-108 150.25,-108"/>
<text xml:space="preserve" text-anchor="middle" x="126.12" y="-86.45" font-family="Sans-Serif" font-size="14.00">Block&#45;01</text>
</g>
<!-- head&#45;&gt;Block&#45;01 -->
<g id="edge3" class="edge">
<title>head&#45;&gt;Block&#45;01</title>
<g id="a_edge3"><a xlink:title="out_b → in_b">
<path fill="none" stroke="black" stroke-width="2" d="M193.88,-143.7C183.17,-135.37 170.13,-125.22 158.35,-116.07"/>
<polygon fill="black" stroke="black" stroke-width="2" points="160.86,-113.58 150.82,-110.21 156.56,-119.11 160.86,-113.58"/>
</a>
</g>
</g>
<!-- Block&#45;02 -->
<g id="node5" class="node">
<title>Block&#45;02</title>
<path fill="#4682b4" fill-opacity="0.498039" stroke="black" d="M240.25,-108C240.25,-108 192,-108 192,-108 186,-108 180,-102 180,-96 180,-96 180,-84 180,-84 180,-78 186,-72 192,-72 192,-72 240.25,-72 240.25,-72 246.25,-72 252.25,-78 252.25,-84 252.25,-84 252.25,-96 252.25,-96 252.25,-102 246.25,-108 240.25,-108"/>
<text xml:space="preserve" text-anchor="middle" x="216.12" y="-86.45" font-family="Sans-Serif" font-size="14.00">Block&#45;02</text>
</g>
<!-- head&#45;&gt;Block&#45;02 -->
<g id="edge5" class="edge">
<title>head&#45;&gt;Block&#45;02</title>
<g id="a_edge5"><a xlink:title="out_b → in_b">
<path fill="none" stroke="black" stroke-width="2" d="M216.12,-143.7C216.12,-136.83 216.12,-128.73 216.12,-120.97"/>
<polygon fill="black" stroke="black" stroke-width="2" points="219.63,-121.13 216.13,-111.13 212.63,-121.13 219.63,-121.13"/>
</a>
</g>
</g>
<!-- Block&#45;03 -->
<g id="node6" class="node">
<title>Block&#45;03</title>
<path fill="#4682b4" fill-opacity="0.498039" stroke="black" d="M330.25,-108C330.25,-108 282,-108 282,-108 276,-108 270,-102 270,-96 270,-96 270,-84 270,-84 270,-78 276,-72 282,-72 282,-72 330.25,-72 330.25,-72 336.25,-72 342.25,-78 342.25,-84 342.25,-84 342.25,-96 342.25,-96 342.25,-102 336.25,-108 330.25,-108"/>
<text xml:space="preserve" text-anchor="middle" x="306.12" y="-86.45" font-family="Sans-Serif" font-size="14.00">Block&#45;03</text>
</g>
<!-- head&#45;&gt;Block&#45;03 -->
<g id="edge7" class="edge">
<title>head&#45;&gt;Block&#45;03</title>
<g id="a_edge7"><a xlink:title="out_b → in_b">
<path fill="none" stroke="black" stroke-width="2" d="M238.37,-143.7C249.08,-135.37 262.12,-125.22 273.9,-116.07"/>
<polygon fill="black" stroke="black" stroke-width="2" points="275.69,-119.11 281.43,-110.21 271.39,-113.58 275.69,-119.11"/>
</a>
</g>
</g>
<!-- Block&#45;04 -->
<g id="node7" class="node">
<title>Block&#45;04</title>
<path fill="#4682b4" fill-opacity="0.498039" stroke="black" d="M420.25,-108C420.25,-108 372,-108 372,-108 366,-108 360,-102 360,-96 360,-96 360,-84 360,-84 360,-78 366,-72 372,-72 372,-72 420.25,-72 420.25,-72 426.25,-72 432.25,-78 432.25,-84 432.25,-84 432.25,-96 432.25,-96 432.25,-102 426.25,-108 420.25,-108"/>
<text xml:space="preserve" text-anchor="middle" x="396.12" y="-86.45" font-family="Sans-Serif" font-size="14.00">Block&#45;04</text>
</g>
<!-- head&#45;&gt;Block&#45;04 -->
<g id="edge9" class="edge">
<title>head&#45;&gt;Block&#45;04</title>
<g id="a_edge9"><a xlink:title="out_b → in_b">
<path fill="none" stroke="black" stroke-width="2" d="M243.46,-150.37C271.14,-139.6 314.52,-122.74 347.97,-109.73"/>
<polygon fill="black" stroke="black" stroke-width="2" points="348.93,-113.11 356.98,-106.22 346.39,-106.59 348.93,-113.11"/>
</a>
</g>
</g>
<!-- tail -->
<g id="node3" class="node">
<title>tail</title>
<path fill="#4682b4" fill-opacity="0.498039" stroke="black" d="M231.12,-36C231.12,-36 201.12,-36 201.12,-36 195.12,-36 189.12,-30 189.12,-24 189.12,-24 189.12,-12 189.12,-12 189.12,-6 195.12,0 201.12,0 201.12,0 231.12,0 231.12,0 237.12,0 243.12,-6 243.12,-12 243.12,-12 243.12,-24 243.12,-24 243.12,-30 237.12,-36 231.12,-36"/>
<text xml:space="preserve" text-anchor="middle" x="216.12" y="-14.45" font-family="Sans-Serif" font-size="14.00">tail</text>
</g>
<!-- Block&#45;00&#45;&gt;tail -->
<g id="edge2" class="edge">
<title>Block&#45;00&#45;&gt;tail</title>
<g id="a_edge2"><a xlink:title="out_b → in_b">
<path fill="none" stroke="black" stroke-width="2" d="M72.55,-74.83C102.8,-63.07 145.74,-46.37 176.77,-34.31"/>
<polygon fill="black" stroke="black" stroke-width="2" points="177.98,-37.59 186.03,-30.7 175.44,-31.07 177.98,-37.59"/>
</a>
</g>
</g>
<!-- Block&#45;01&#45;&gt;tail -->
<g id="edge4" class="edge">
<title>Block&#45;01&#45;&gt;tail</title>
<g id="a_edge4"><a xlink:title="out_b → in_b">
<path fill="none" stroke="black" stroke-width="2" d="M148.37,-71.7C159.08,-63.37 172.12,-53.22 183.9,-44.07"/>
<polygon fill="black" stroke="black" stroke-width="2" points="185.69,-47.11 191.43,-38.21 181.39,-41.58 185.69,-47.11"/>
</a>
</g>
</g>
<!-- Block&#45;02&#45;&gt;tail -->
<g id="edge6" class="edge">
<title>Block&#45;02&#45;&gt;tail</title>
<g id="a_edge6"><a xlink:title="out_b → in_b">
<path fill="none" stroke="black" stroke-width="2" d="M216.12,-71.7C216.12,-64.83 216.12,-56.73 216.12,-48.97"/>
<polygon fill="black" stroke="black" stroke-width="2" points="219.63,-49.13 216.13,-39.13 212.63,-49.13 219.63,-49.13"/>
</a>
</g>
</g>
<!-- Block&#45;03&#45;&gt;tail -->
<g id="edge8" class="edge">
<title>Block&#45;03&#45;&gt;tail</title>
<g id="a_edge8"><a xlink:title="out_b → in_b">
<path fill="none" stroke="black" stroke-width="2" d="M283.88,-71.7C273.17,-63.37 260.13,-53.22 248.35,-44.07"/>
<polygon fill="black" stroke="black" stroke-width="2" points="250.86,-41.58 240.82,-38.21 246.56,-47.11 250.86,-41.58"/>
</a>
</g>
</g>
<!-- Block&#45;04&#45;&gt;tail -->
<g id="edge10" class="edge">
<title>Block&#45;04&#45;&gt;tail</title>
<g id="a_edge10"><a xlink:title="out_b → in_b">
<path fill="none" stroke="black" stroke-width="2" d="M359.7,-74.83C329.45,-63.07 286.51,-46.37 255.48,-34.31"/>
<polygon fill="black" stroke="black" stroke-width="2" points="256.81,-31.07 246.22,-30.7 254.27,-37.59 256.81,-31.07"/>
</a>
</g>
</g>
</g>
</svg>
