<?xml version="1.0" encoding="UTF-8" standalone="no"?>
<!DOCTYPE svg PUBLIC "-//W3C//DTD SVG 1.1//EN"
 "http://www.w3.org/Graphics/SVG/1.1/DTD/svg11.dtd">
<!-- Generated by graphviz version 13.1.2 (20250808.2320)
 -->
<!-- Title: If&#45;Else Pages: 1 -->
<svg width="89pt" height="260pt"
 viewBox="0.00 0.00 89.00 260.00" xmlns="http://www.w3.org/2000/svg" xmlns:xlink="http://www.w3.org/1999/xlink">
<g id="graph0" class="graph" transform="scale(1 1) rotate(0) translate(4 256)">
<title>If&#45;Else</title>
<polygon fill="white" stroke="none" points="-4,4 -4,-256 85,-256 85,4 -4,4"/>
<!-- IEB1 -->
<g id="node1" class="node">
<title>IEB1</title>
<path fill="#4682b4" fill-opacity="0.498039" stroke="black" d="M42,-180C42,-180 12,-180 12,-180 6,-180 0,-174 0,-168 0,-168 0,-156 0,-156 0,-150 6,-144 12,-144 12,-144 42,-144 42,-144 48,-144 54,-150 54,-156 54,-156 54,-168 54,-168 54,-174 48,-180 42,-180"/>
<text xml:space="preserve" text-anchor="middle" x="27" y="-158.45" font-family="Sans-Serif" font-size="14.00">IEB1</text>
</g>
<!-- IEB2 -->
<g id="node2" class="node">
<title>IEB2</title>
<path fill="#4682b4" fill-opacity="0.498039" stroke="black" d="M42,-108C42,-108 12,-108 12,-108 6,-108 0,-102 0,-96 0,-96 0,-84 0,-84 0,-78 6,-72 12,-72 12,-72 42,-72 42,-72 48,-72 54,-78 54,-84 54,-84 54,-96 54,-96 54,-102 48,-108 42,-108"/>
<text xml:space="preserve" text-anchor="middle" x="27" y="-86.45" font-family="Sans-Serif" font-size="14.00">IEB2</text>
</g>
<!-- IEB1&#45;&gt;IEB2 -->
<g id="edge1" class="edge">
<title>IEB1&#45;&gt;IEB2</title>
<g id="a_edge1"><a xlink:title="out_next_if → in_if&#10;out_next_dt → in_dt">
<path fill="none" stroke="black" stroke-width="2" d="M27,-143.7C27,-136.83 27,-128.73 27,-120.97"/>
<polygon fill="black" stroke="black" stroke-width="2" points="30.5,-121.13 27,-111.13 23.5,-121.13 30.5,-121.13"/>
</a>
</g>
</g>
<!-- tail -->
<g id="node3" class="node">
<title>tail</title>
<path fill="#4682b4" fill-opacity="0.498039" stroke="black" d="M69,-36C69,-36 39,-36 39,-36 33,-36 27,-30 27,-24 27,-24 27,-12 27,-12 27,-6 33,0 39,0 39,0 69,0 69,0 75,0 81,-6 81,-12 81,-12 81,-24 81,-24 81,-30 75,-36 69,-36"/>
<text xml:space="preserve" text-anchor="middle" x="54" y="-14.45" font-family="Sans-Serif" font-size="14.00">tail</text>
</g>
<!-- IEB2&#45;&gt;tail -->
<g id="edge2" class="edge">
<title>IEB2&#45;&gt;tail</title>
<g id="a_edge2"><a xlink:title="out_next_if → in_if&#10;out_next_dt → in_dt">
<path fill="none" stroke="black" stroke-width="2" d="M33.67,-71.7C36.42,-64.58 39.68,-56.13 42.77,-48.11"/>
<polygon fill="black" stroke="black" stroke-width="2" points="45.98,-49.52 46.31,-38.93 39.45,-47 45.98,-49.52"/>
</a>
</g>
</g>
<!-- head -->
<g id="node4" class="node">
<title>head</title>
<path fill="#f0c820" fill-opacity="0.498039" stroke="black" d="M69,-252C69,-252 39,-252 39,-252 33,-252 27,-246 27,-240 27,-240 27,-228 27,-228 27,-222 33,-216 39,-216 39,-216 69,-216 69,-216 75,-216 81,-222 81,-228 81,-228 81,-240 81,-240 81,-246 75,-252 69,-252"/>
<text xml:space="preserve" text-anchor="middle" x="54" y="-230.45" font-family="Sans-Serif" font-size="14.00">head</text>
</g>
<!-- head&#45;&gt;IEB1 -->
<g id="edge3" class="edge">
<title>head&#45;&gt;IEB1</title>
<g id="a_edge3"><a xlink:title="out_next_if → in_if&#10;out_next_dt → in_dt">
<path fill="none" stroke="black" stroke-width="2" d="M47.33,-215.7C44.58,-208.58 41.32,-200.13 38.23,-192.11"/>
<polygon fill="black" stroke="black" stroke-width="2" points="41.55,-191 34.69,-182.93 35.02,-193.52 41.55,-191"/>
</a>
</g>
</g>
<!-- head&#45;&gt;tail -->
<g id="edge4" class="edge">
<title>head&#45;&gt;tail</title>
<g id="a_edge4"><a xlink:title="out_tail_if → in_if&#10;out_tail_dt → in_dt">
<path fill="none" stroke="black" stroke-width="2" d="M57.65,-215.91C59.68,-205.57 61.98,-192.09 63,-180 67.03,-132.17 67.03,-119.83 63,-72 62.36,-64.44 61.22,-56.35 59.97,-48.81"/>
<polygon fill="black" stroke="black" stroke-width="2" points="63.43,-48.28 58.2,-39.07 56.54,-49.54 63.43,-48.28"/>
</a>
</g>
</g>
</g>
</svg>
